<?xml version="1.0" standalone="no"?>
<!DOCTYPE svg PUBLIC "-//W3C//DTD SVG 20010904//EN"
 "http://www.w3.org/TR/2001/REC-SVG-20010904/DTD/svg10.dtd">
<svg version="1.0" xmlns="http://www.w3.org/2000/svg"
 width="512.000000pt" height="512.000000pt" viewBox="0 0 512.000000 512.000000"
 preserveAspectRatio="xMidYMid meet">

<g transform="translate(0.000000,512.000000) scale(0.100000,-0.100000)"
fill="#000000" stroke="none">
<path d="M0 2560 l0 -2560 2560 0 2560 0 0 2560 0 2560 -2560 0 -2560 0 0
-2560z m2015 1095 c172 -24 276 -68 361 -150 90 -89 134 -207 134 -365 0 -130
-33 -237 -98 -316 -33 -39 -115 -105 -161 -128 l-33 -18 76 -33 c220 -96 327
-286 313 -559 -6 -125 -25 -194 -78 -282 -79 -130 -247 -241 -434 -286 -86
-20 -119 -21 -697 -25 l-608 -4 0 1090 0 1091 563 0 c435 0 585 -4 662 -15z
m1975 -240 l0 -105 -445 0 -445 0 0 105 0 105 445 0 445 0 0 -105z m-195 -333
c209 -68 356 -200 450 -406 50 -109 76 -223 82 -368 l6 -128 -573 0 -572 0 7
-57 c9 -79 47 -186 80 -225 67 -81 167 -120 304 -120 64 0 101 6 144 22 72 27
153 92 180 143 l19 37 189 0 c104 0 189 -1 189 -3 0 -14 -56 -141 -85 -193
-126 -226 -383 -346 -705 -331 -331 16 -577 186 -693 477 -52 132 -73 365 -46
516 58 330 289 576 609 649 93 21 333 14 415 -13z"/>
<path d="M1270 3046 l0 -256 265 0 c293 0 342 6 413 53 66 45 94 104 95 201 1
123 -46 192 -158 232 -43 15 -92 19 -332 22 l-283 4 0 -256z"/>
<path d="M1270 2160 l0 -302 313 4 c256 4 321 7 362 21 74 24 129 70 159 129
22 44 26 65 26 137 -1 145 -43 222 -149 274 l-66 32 -322 3 -323 3 0 -301z"/>
<path d="M3482 2779 c-148 -19 -257 -130 -286 -291 l-7 -38 351 0 350 0 0 24
c0 43 -36 142 -69 190 -38 55 -116 103 -181 111 -25 4 -56 8 -70 9 -14 2 -53
0 -88 -5z"/>
</g>
</svg>
