<?xml version="1.0" encoding="UTF-8"?>
<svg version="1.1" xmlns="http://www.w3.org/2000/svg" width="128" height="128">
<path d="M0 0 C1.49273437 -0.04350586 1.49273437 -0.04350586 3.015625 -0.08789062 C15.74662184 -0.19592128 25.74468424 5.42062503 35 13.875 C44.23442313 23.44252858 47.06629079 33.67012993 47.1875 46.4375 C47.23100586 47.93023437 47.23100586 47.93023437 47.27539062 49.453125 C47.38126008 61.92943277 42.03241829 71.97933473 33.625 81 C24.11137686 90.05159288 13.39857547 93.84285624 0.5 93.75 C-0.47710937 93.76998047 -1.45421875 93.78996094 -2.4609375 93.81054688 C-15.0588865 93.80217058 -25.09710773 88.11081506 -34.25 79.75 C-43.48442313 70.18247142 -46.31629079 59.95487007 -46.4375 47.1875 C-46.46650391 46.19234375 -46.49550781 45.1971875 -46.52539062 44.171875 C-46.63342128 31.44087816 -41.01687497 21.44281576 -32.5625 12.1875 C-22.99497142 2.95307687 -12.76737007 0.12120921 0 0 Z " fill="#000000" transform="translate(63.125,16.6875)"/>
</svg>
