<?xml version="1.0" standalone="no"?>
<!DOCTYPE svg PUBLIC "-//W3C//DTD SVG 20010904//EN"
 "http://www.w3.org/TR/2001/REC-SVG-20010904/DTD/svg10.dtd">
<svg version="1.0" xmlns="http://www.w3.org/2000/svg"
 width="300.000000pt" height="300.000000pt" viewBox="0 0 300.000000 300.000000"
 preserveAspectRatio="xMidYMid meet">

<g transform="translate(0.000000,300.000000) scale(0.100000,-0.100000)"
fill="#000000" stroke="none">
<path d="M575 2801 l-161 -6 -41 -33 c-68 -53 -227 -226 -279 -303 -47 -68
-49 -74 -53 -152 -2 -45 2 -104 8 -133 16 -69 77 -153 143 -195 44 -29 63 -34
124 -37 61 -4 81 0 127 21 68 31 133 98 155 160 9 26 19 47 23 47 3 0 11 -18
18 -39 17 -58 80 -132 137 -161 41 -21 63 -25 139 -25 81 0 95 3 137 28 82 49
137 136 139 219 l1 43 9 -42 c19 -99 78 -181 162 -226 35 -18 58 -22 137 -22
79 0 102 4 137 23 64 34 121 99 145 165 l21 59 12 -46 c44 -171 245 -257 409
-175 57 28 120 101 137 160 7 21 15 39 19 39 4 0 12 -17 18 -38 20 -64 78
-129 148 -163 57 -28 70 -31 137 -27 65 3 81 8 128 39 108 72 155 179 147 334
-3 65 -7 76 -53 144 -59 87 -229 269 -294 314 l-45 31 -916 2 c-503 1 -987 -2
-1075 -5z"/>
<path d="M1165 1966 c-117 -159 -373 -167 -509 -15 l-45 50 -47 -51 c-60 -64
-134 -101 -218 -107 l-64 -6 -9 -136 c-4 -75 -8 -320 -7 -546 0 -323 4 -437
17 -535 26 -195 73 -341 114 -354 39 -12 306 -46 438 -56 229 -18 884 -24
1130 -11 381 21 638 54 662 87 37 51 73 193 95 379 15 127 18 845 5 1046 l-9
126 -64 6 c-84 6 -158 43 -218 107 l-47 51 -45 -50 c-137 -152 -388 -144 -510
16 l-32 42 -27 -39 c-83 -120 -285 -166 -426 -97 -50 24 -102 68 -141 118 -12
15 -16 12 -43 -25z m-30 -303 c22 -12 52 -34 67 -50 l27 -28 270 1 271 0 32
31 c55 52 94 66 194 71 124 6 180 -13 249 -82 90 -90 144 -215 235 -544 93
-338 107 -431 76 -507 -19 -45 -51 -64 -130 -76 -225 -35 -445 114 -464 314
l-5 49 -41 -7 c-208 -33 -598 -33 -827 1 l-46 6 -5 -49 c-11 -112 -92 -222
-204 -275 -147 -69 -334 -57 -384 24 -43 70 -24 194 95 607 95 332 181 478
309 525 62 23 228 17 281 -11z"/>
<path d="M1346 1260 c-80 -82 -146 -155 -146 -161 0 -9 23 -10 80 -5 l80 6 0
-75 0 -75 140 0 140 0 0 75 0 75 80 -6 c55 -5 80 -4 80 4 0 12 -288 312 -300
312 -4 0 -73 -67 -154 -150z"/>
</g>
</svg>
