<svg version="1.1" id="Layer_1" xmlns="http://www.w3.org/2000/svg" xmlns:xlink="http://www.w3.org/1999/xlink" x="0px" y="0px"
	 width="100%" viewBox="0 0 512 512" enable-background="new 0 0 512 512" xml:space="preserve">
<path fill="#000000" opacity="1.000000" stroke="none" 
	d="
M247.000000,513.000000 
	C164.686630,513.000000 82.873260,513.000000 1.029946,513.000000 
	C1.029946,342.394928 1.029946,171.789871 1.029946,1.092401 
	C171.563385,1.092401 342.126862,1.092401 512.845154,1.092401 
	C512.845154,171.666565 512.845154,342.333252 512.845154,513.000000 
	C424.456512,513.000000 335.978241,513.000000 247.000000,513.000000 
M253.500000,198.000000 
	C236.739395,198.000000 219.978775,198.000000 203.270111,198.000000 
	C203.270111,274.295319 203.270111,350.021393 203.270111,425.731628 
	C228.275894,425.731628 253.010605,425.731628 278.000000,425.731628 
	C278.000000,423.663727 278.000000,421.855377 278.000000,420.047028 
	C278.000000,378.056824 278.113342,336.066132 277.927307,294.076752 
	C277.875031,282.289001 282.455170,272.654358 290.215515,264.393280 
	C298.981079,255.062073 310.174500,251.128830 322.813629,252.068848 
	C339.403534,253.302658 347.847321,260.190826 354.026642,274.682983 
	C358.143311,284.337616 358.756836,294.651917 358.852631,304.792267 
	C359.217804,343.446472 359.000000,382.106171 359.000000,420.763824 
	C359.000000,422.383911 359.000000,424.003998 359.000000,425.796661 
	C384.144592,425.796661 408.878937,425.796661 434.000000,425.796661 
	C434.000000,409.811249 434.106964,394.025146 433.977325,378.240997 
	C433.720673,346.995422 433.611511,315.744019 432.830017,284.510284 
	C432.596375,275.173462 431.031555,265.720062 428.854004,256.612396 
	C424.063629,236.576553 413.750610,219.574203 396.830139,207.591721 
	C385.727295,199.729111 372.947998,195.430313 359.140808,193.820938 
	C347.395721,192.451920 336.003937,192.960861 324.621826,195.778564 
	C307.860840,199.927887 294.692535,209.353760 284.382416,223.057190 
	C282.742859,225.236328 280.635834,227.063721 277.768036,230.081863 
	C277.768036,218.370560 277.768036,208.289673 277.768036,198.000000 
	C269.785645,198.000000 262.142822,198.000000 253.500000,198.000000 
M85.000000,226.500000 
	C85.000000,292.924774 85.000000,359.349548 85.000000,425.714661 
	C110.304810,425.714661 135.042328,425.714661 159.716888,425.714661 
	C159.716888,349.694763 159.716888,273.960602 159.716888,198.285339 
	C134.695206,198.285339 109.957687,198.285339 85.000000,198.285339 
	C85.000000,207.546005 85.000000,216.522995 85.000000,226.500000 
M153.498383,100.000069 
	C150.386932,97.671486 147.553818,94.751076 144.109146,93.130997 
	C135.539688,89.100647 126.619987,87.532539 116.894684,88.788811 
	C107.355675,90.021034 98.883644,93.183876 92.112785,99.600052 
	C83.410156,107.846794 79.748848,118.245041 80.828979,130.545151 
	C81.491898,138.094299 83.488930,144.962662 88.233917,150.559006 
	C99.249481,163.550949 113.316216,167.413223 130.232971,165.241379 
	C151.184875,162.551468 167.035339,144.090561 164.087051,122.501770 
	C162.927841,114.013474 159.748779,106.751114 153.498383,100.000069 
z"/>
<path fill="#FFFFFF" opacity="1.000000" stroke="none" 
	d="
M254.000000,198.000000 
	C262.142822,198.000000 269.785645,198.000000 277.768036,198.000000 
	C277.768036,208.289673 277.768036,218.370560 277.768036,230.081863 
	C280.635834,227.063721 282.742859,225.236328 284.382416,223.057190 
	C294.692535,209.353760 307.860840,199.927887 324.621826,195.778564 
	C336.003937,192.960861 347.395721,192.451920 359.140808,193.820938 
	C372.947998,195.430313 385.727295,199.729111 396.830139,207.591721 
	C413.750610,219.574203 424.063629,236.576553 428.854004,256.612396 
	C431.031555,265.720062 432.596375,275.173462 432.830017,284.510284 
	C433.611511,315.744019 433.720673,346.995422 433.977325,378.240997 
	C434.106964,394.025146 434.000000,409.811249 434.000000,425.796661 
	C408.878937,425.796661 384.144592,425.796661 359.000000,425.796661 
	C359.000000,424.003998 359.000000,422.383911 359.000000,420.763824 
	C359.000000,382.106171 359.217804,343.446472 358.852631,304.792267 
	C358.756836,294.651917 358.143311,284.337616 354.026642,274.682983 
	C347.847321,260.190826 339.403534,253.302658 322.813629,252.068848 
	C310.174500,251.128830 298.981079,255.062073 290.215515,264.393280 
	C282.455170,272.654358 277.875031,282.289001 277.927307,294.076752 
	C278.113342,336.066132 278.000000,378.056824 278.000000,420.047028 
	C278.000000,421.855377 278.000000,423.663727 278.000000,425.731628 
	C253.010605,425.731628 228.275894,425.731628 203.270111,425.731628 
	C203.270111,350.021393 203.270111,274.295319 203.270111,198.000000 
	C219.978775,198.000000 236.739395,198.000000 254.000000,198.000000 
z"/>
<path fill="#FFFFFF" opacity="1.000000" stroke="none" 
	d="
M85.000000,226.000000 
	C85.000000,216.522995 85.000000,207.546005 85.000000,198.285339 
	C109.957687,198.285339 134.695206,198.285339 159.716888,198.285339 
	C159.716888,273.960602 159.716888,349.694763 159.716888,425.714661 
	C135.042328,425.714661 110.304810,425.714661 85.000000,425.714661 
	C85.000000,359.349548 85.000000,292.924774 85.000000,226.000000 
z"/>
<path fill="#FFFFFF" opacity="1.000000" stroke="none" 
	d="
M153.752808,100.256119 
	C159.748779,106.751114 162.927841,114.013474 164.087051,122.501770 
	C167.035339,144.090561 151.184875,162.551468 130.232971,165.241379 
	C113.316216,167.413223 99.249481,163.550949 88.233917,150.559006 
	C83.488930,144.962662 81.491898,138.094299 80.828979,130.545151 
	C79.748848,118.245041 83.410156,107.846794 92.112785,99.600052 
	C98.883644,93.183876 107.355675,90.021034 116.894684,88.788811 
	C126.619987,87.532539 135.539688,89.100647 144.109146,93.130997 
	C147.553818,94.751076 150.386932,97.671486 153.752808,100.256119 
z"/>
</svg>